<?xml version="1.0" encoding="UTF-8"?>
<svg id="Layer_2" xmlns="http://www.w3.org/2000/svg" viewBox="0 0 371.27 171.28">
  <defs>
    <style>
      .cls-1 {
        fill: #0071bc;
      }
    </style>
  </defs>
  <g id="_레이어_1" data-name="레이어_1">
    <path class="cls-1" d="M102.27,156.38h9.14v3.13h-12.9v-22.18h3.76v19.05Z"/>
    <path class="cls-1" d="M114,136.56h3.82v4.19h-3.82v-4.19ZM114,143.14h3.82v16.35h-3.82v-16.35Z"/>
    <path class="cls-1" d="M129.35,142.71c1.14,0,2.15.2,3.05.61.89.41,1.67.99,2.34,1.75,1.31,1.52,1.96,3.57,1.96,6.15,0,1.25-.21,2.41-.64,3.46-.43,1.05-1.02,1.97-1.78,2.75-.78.76-1.69,1.35-2.75,1.78s-2.21.64-3.46.64c-1.35,0-2.54-.15-3.57-.44-1.04-.29-1.84-.61-2.41-.95v-22.95h3.76v8.29c.49-.34,1.05-.61,1.67-.8.62-.19,1.23-.28,1.84-.28ZM128.09,156.72c.82,0,1.52-.16,2.11-.47s1.07-.73,1.45-1.24c.36-.51.63-1.09.81-1.74.18-.64.27-1.31.27-1.99,0-.49-.05-1.05-.14-1.68-.1-.63-.28-1.22-.57-1.77-.28-.53-.69-.98-1.21-1.35-.52-.37-1.22-.56-2.09-.56-.51,0-1.04.13-1.58.38-.54.26-.97.53-1.3.81v9.28c.3.09.64.17,1.03.23.38.06.79.09,1.22.09Z"/>
    <path class="cls-1" d="M147.35,142.71c.57,0,1.06.07,1.47.2.41.13.71.24.9.31l-.94,3.5c-.21-.1-.47-.21-.77-.34s-.65-.2-1.03-.2c-.42,0-.8.09-1.14.27-.34.18-.66.4-.94.67s-.54.56-.75.87c-.22.31-.39.59-.53.84v10.65h-3.76v-16.35h3.76v1.34c.44-.49.95-.91,1.55-1.25.6-.34,1.32-.51,2.18-.51Z"/>
    <path class="cls-1" d="M163.98,155.3c0,.87.05,1.66.16,2.36.1.7.22,1.31.36,1.82h-3.73c-.09-.21-.17-.41-.21-.61-.05-.2-.09-.4-.13-.61-.61.49-1.34.83-2.21,1.03-.86.19-1.7.28-2.49.28s-1.45-.11-2.06-.33c-.62-.22-1.14-.53-1.58-.93-.46-.42-.81-.91-1.05-1.48-.25-.57-.37-1.2-.37-1.88,0-1.23.31-2.22.94-2.95s1.41-1.29,2.36-1.67c.93-.36,1.96-.6,3.08-.71,1.12-.11,2.18-.18,3.19-.2v-.94c0-.91-.2-1.57-.61-1.98s-1.07-.61-1.98-.61c-.68,0-1.36.15-2.04.44-.67.29-1.41.77-2.21,1.44l-1.94-2.53c1.86-1.69,3.99-2.53,6.38-2.53,2.09,0,3.64.47,4.64,1.4,1.01.93,1.51,2.36,1.51,4.3v6.89ZM156.32,156.52c.68,0,1.38-.11,2.09-.33.71-.22,1.31-.63,1.81-1.24v-2.76c-2.03.04-3.49.26-4.37.67-.88.41-1.32,1.09-1.32,2.04,0,.55.19.96.57,1.22.38.27.79.4,1.22.4Z"/>
    <path class="cls-1" d="M175.71,142.71c.57,0,1.06.07,1.47.2.41.13.71.24.9.31l-.94,3.5c-.21-.1-.47-.21-.77-.34s-.65-.2-1.03-.2c-.42,0-.8.09-1.14.27-.34.18-.66.4-.94.67s-.54.56-.75.87c-.22.31-.39.59-.53.84v10.65h-3.76v-16.35h3.76v1.34c.44-.49.95-.91,1.55-1.25.6-.34,1.32-.51,2.18-.51Z"/>
    <path class="cls-1" d="M194.96,143.14c-1.04,2.68-1.95,4.99-2.71,6.95s-1.39,3.61-1.91,4.96c-.53,1.37-.96,2.48-1.28,3.33-.32.85-.57,1.52-.74,1.99-.17.47-.29.8-.36.98-.07.18-.1.28-.1.3-.23.76-.48,1.47-.75,2.12-.27.65-.64,1.22-1.1,1.69-.46.47-1.03.84-1.71,1.11-.68.27-1.53.4-2.53.4-.15,0-.31,0-.47-.01-.16,0-.31-.02-.44-.04-.1,0-.23,0-.41-.01-.18,0-.29-.01-.33-.01v-3.1h1.59c.76,0,1.3-.24,1.64-.71.33-.48.63-1.08.9-1.82.02-.04.04-.09.07-.14.03-.06.06-.14.1-.26.06-.15.13-.37.23-.65.09-.28.26-.71.48-1.28-1.01-2.56-2.04-5.19-3.09-7.89s-2.08-5.32-3.09-7.89h4.13l3.87,10.71c.65-1.77,1.31-3.56,1.98-5.38.67-1.82,1.32-3.6,1.95-5.32h4.07Z"/>
    <path class="cls-1" d="M211.82,143.59l-1.82,15.95-3.59-.34,2.82-22.04h4.22l4.64,15.95,4.96-15.95h3.93l2.96,22.04-3.59.34-1.74-15.95-4.56,14.21h-3.9l-4.33-14.21Z"/>
    <path class="cls-1" d="M246.04,157.65c.1.73.21,1.34.33,1.84h-3.87c-.06-.21-.1-.45-.13-.71-.03-.27-.06-.54-.1-.83-.49.48-1.13.91-1.91,1.31-.78.4-1.74.6-2.88.6-1.63,0-2.9-.48-3.8-1.45s-1.38-2.26-1.44-3.87v-11.39h3.82v10.88c0,.89.17,1.55.51,1.97s.91.63,1.71.63c.46,0,.88-.09,1.28-.28.4-.19.77-.42,1.11-.68.34-.25.64-.5.88-.77s.44-.48.57-.65v-11.08h3.76v12.39c0,.68.05,1.39.16,2.12Z"/>
    <path class="cls-1" d="M255.53,149.66c.7.28,1.38.57,2.04.87.66.29,1.24.63,1.75,1.01.49.4.89.85,1.18,1.35.29.5.44,1.11.44,1.81,0,1.59-.58,2.85-1.75,3.76s-2.74,1.37-4.71,1.37c-.7,0-1.36-.07-1.98-.2-.62-.13-1.16-.29-1.64-.48-.49-.19-.92-.38-1.28-.58-.36-.2-.64-.37-.83-.5l1.51-2.85c.09.06.27.17.53.33.26.16.56.33.93.5.36.17.77.32,1.23.44.46.12.94.18,1.45.18.84,0,1.48-.15,1.94-.46.46-.3.68-.71.68-1.23,0-.36-.07-.66-.2-.9-.13-.24-.32-.45-.57-.64-.27-.19-.59-.37-.97-.53-.38-.16-.82-.35-1.31-.55-.67-.28-1.3-.56-1.89-.83-.6-.27-1.12-.58-1.58-.94-.46-.36-.82-.8-1.08-1.31-.27-.51-.4-1.14-.4-1.88s.15-1.35.44-1.94c.29-.59.71-1.09,1.24-1.51.51-.42,1.13-.74,1.87-.97s1.52-.34,2.38-.34c.66,0,1.29.07,1.86.2.58.13,1.1.28,1.55.46.46.19.85.39,1.2.6.34.21.61.39.8.54l-1.74,2.68c-.15-.11-.35-.25-.6-.41-.25-.16-.53-.32-.85-.47-.34-.15-.71-.28-1.1-.4-.39-.11-.79-.17-1.21-.17-.66,0-1.16.15-1.49.44-.33.29-.5.69-.5,1.18,0,.59.25,1.05.74,1.4.49.34,1.13.66,1.91.97h.03Z"/>
    <path class="cls-1" d="M264.25,136.56h3.82v4.19h-3.82v-4.19ZM264.25,143.14h3.82v16.35h-3.82v-16.35Z"/>
    <path class="cls-1" d="M285.12,157.98c-.8.63-1.67,1.09-2.61,1.4-.94.3-1.94.46-3.01.46-1.18,0-2.25-.23-3.23-.68-.98-.46-1.82-1.07-2.52-1.85s-1.25-1.69-1.64-2.73c-.39-1.04-.58-2.15-.58-3.33s.19-2.22.56-3.25c.37-1.03.91-1.94,1.61-2.73.68-.78,1.52-1.4,2.51-1.87.99-.46,2.11-.7,3.36-.7,1.03,0,2,.15,2.93.46.93.3,1.79.79,2.59,1.45l-1.62,2.65c-.57-.36-1.16-.69-1.77-1s-1.32-.46-2.14-.46c-1.27,0-2.27.48-2.99,1.42-.72.95-1.08,2.28-1.08,3.99,0,.66.08,1.32.23,1.98.15.65.39,1.24.71,1.75.32.51.75.93,1.28,1.25.53.32,1.18.48,1.94.48.47,0,.93-.06,1.35-.17.43-.11.82-.26,1.18-.43.34-.15.64-.31.88-.48.25-.17.44-.3.57-.4l1.48,2.79Z"/>
    <path class="cls-1" d="M301.18,156.38h9.14v3.13h-12.9v-22.18h3.76v19.05Z"/>
    <path class="cls-1" d="M325.99,155.3c0,.87.05,1.66.16,2.36.1.7.22,1.31.36,1.82h-3.73c-.09-.21-.17-.41-.21-.61-.05-.2-.09-.4-.13-.61-.61.49-1.34.83-2.21,1.03-.86.19-1.7.28-2.49.28s-1.45-.11-2.06-.33c-.62-.22-1.14-.53-1.58-.93-.46-.42-.81-.91-1.05-1.48-.25-.57-.37-1.2-.37-1.88,0-1.23.31-2.22.94-2.95s1.41-1.29,2.36-1.67c.93-.36,1.96-.6,3.08-.71,1.12-.11,2.18-.18,3.19-.2v-.94c0-.91-.2-1.57-.61-1.98s-1.07-.61-1.98-.61c-.68,0-1.36.15-2.04.44-.67.29-1.41.77-2.21,1.44l-1.94-2.53c1.86-1.69,3.99-2.53,6.38-2.53,2.09,0,3.64.47,4.64,1.4,1.01.93,1.51,2.36,1.51,4.3v6.89ZM318.33,156.52c.68,0,1.38-.11,2.09-.33.71-.22,1.31-.63,1.81-1.24v-2.76c-2.03.04-3.49.26-4.37.67-.88.41-1.32,1.09-1.32,2.04,0,.55.19.96.57,1.22.38.27.79.4,1.22.4Z"/>
    <path class="cls-1" d="M337.49,142.71c1.14,0,2.15.2,3.05.61.89.41,1.67.99,2.34,1.75,1.31,1.52,1.96,3.57,1.96,6.15,0,1.25-.21,2.41-.64,3.46-.43,1.05-1.02,1.97-1.78,2.75-.78.76-1.69,1.35-2.75,1.78s-2.21.64-3.46.64c-1.35,0-2.54-.15-3.57-.44-1.04-.29-1.84-.61-2.41-.95v-22.95h3.76v8.29c.49-.34,1.05-.61,1.67-.8.62-.19,1.23-.28,1.84-.28ZM336.24,156.72c.82,0,1.52-.16,2.11-.47s1.07-.73,1.45-1.24c.36-.51.63-1.09.81-1.74.18-.64.27-1.31.27-1.99,0-.49-.05-1.05-.14-1.68-.1-.63-.28-1.22-.57-1.77-.28-.53-.69-.98-1.21-1.35-.52-.37-1.22-.56-2.09-.56-.51,0-1.04.13-1.58.38-.54.26-.97.53-1.3.81v9.28c.3.09.64.17,1.03.23.38.06.79.09,1.22.09Z"/>
    <path class="cls-1" d="M354.46,142.68c1.29,0,2.4.27,3.32.8.92.53,1.68,1.24,2.26,2.14.59.89,1.02,1.94,1.3,3.13.27,1.2.41,2.45.41,3.76h-11.05c0,.53.08,1.05.24,1.55s.41.95.75,1.35.78.72,1.31.95c.53.24,1.17.36,1.91.36.49,0,1-.06,1.52-.17.52-.11,1.01-.26,1.47-.43.46-.15.87-.31,1.25-.48.38-.17.67-.31.88-.43l1.48,2.71c-.19.13-.49.31-.9.53s-.91.43-1.49.64c-.59.19-1.25.36-1.98.51-.73.15-1.51.23-2.35.23-1.08,0-2.11-.19-3.09-.58-.98-.39-1.84-.95-2.58-1.69-.76-.74-1.36-1.65-1.79-2.72-.44-1.07-.66-2.29-.66-3.66,0-1.23.19-2.37.57-3.4.38-1.03.92-1.93,1.62-2.69.68-.76,1.5-1.35,2.45-1.77.95-.42,1.99-.63,3.13-.63ZM354.38,145.79c-.87,0-1.65.34-2.32,1.03s-1.07,1.6-1.18,2.76h7.09c0-.44-.08-.88-.24-1.32-.16-.45-.39-.86-.7-1.24-.32-.36-.71-.65-1.15-.88-.45-.23-.94-.34-1.5-.34Z"/>
    <path class="cls-1" d="M365.34,159.48v-23.98h3.79v23.98h-3.79Z"/>
    <g>
      <path class="cls-1" d="M313.36,22.67c-5.71,0-10.09,3.74-10.09,8.93,0,4.35,3.05,7.73,8.5,7.73s10.09-3.74,10.09-8.93c0-4.35-3.05-7.73-8.5-7.73Z"/>
      <polygon class="cls-1" points="294.63 105.5 310.3 105.5 318.01 48.27 302.34 48.27 294.63 105.5"/>
      <path class="cls-1" d="M352.54,71.21c-5.98-1.81-11.16-3.26-11.16-7.37,0-3.38,3.72-4.83,8.77-4.83s9.43,1.45,14.08,4.47l7.04-10.87c-6.24-3.98-12.75-5.8-20.45-5.8-15.01,0-24.44,7-24.44,18.59s8.9,14.85,16.87,17.15c6.51,1.93,12.35,3.02,12.35,7.12,0,3.26-3.98,5.07-9.96,5.07-6.77,0-12.35-2.29-17.4-5.68l-6.91,11.35c6.77,4.47,14.61,6.52,23.37,6.52,15.01,0,25.9-6.16,25.9-18.35s-9.83-14.85-18.06-17.39Z"/>
      <polygon class="cls-1" points="123.75 33.01 108.9 33.01 98.51 105.33 152.76 105.33 152.76 90.42 115.71 90.42 123.75 33.01"/>
      <path class="cls-1" d="M218.4,48.27h-15.54l-.29,2.46c-3.43-2.59-7.56-4.22-12.17-4.76-13.56-1.57-26.64,6.14-30.84,19.89-3.12,10.21-2.4,24.48,7.32,32.66,4.96,4.17,11.21,6.28,17.48,6.28,5.32,0,10.64-1.54,15.22-4.59,3.6,4.93,12.1,6.93,18.82,6.38v-11.59c-3.98-.36-5.31-2.29-5.31-5.55,0-1.45.27-3.5.53-5.31l4.78-35.86ZM196.03,82.17h0c-1.08,2.23-2.54,4.08-4.25,5.33-4.59,3.38-11.02,3.22-15.31-.39-3.72-3.13-4.72-8.41-2.65-16.04,1.5-5.52,6.1-10.7,13.93-10.35.31.01.62.02.93.05,3.45.4,5.9,2.01,7.51,4.93,2.44,4.44,2.38,11.21-.15,16.47Z"/>
      <path class="cls-1" d="M266.79,45.98c-6.5-.75-12.55,1.27-17.56,4.8l.34-2.5h-14.77l-10.45,76.75h14.75c1.96-14.57,3.62-26.99,3.62-26.99.18.16.36.33.55.49,4.96,4.17,11.21,6.28,17.47,6.28,5.73,0,11.47-1.76,16.27-5.3,3.65-2.69,6.71-6.45,8.83-10.86,4.64-9.63,4.55-21.46-.22-30.12-3.93-7.13-10.62-11.59-18.85-12.54ZM272.43,82.17h0c-1.08,2.23-2.54,4.08-4.25,5.33-4.59,3.38-11.02,3.22-15.31-.39-3.72-3.13-3.81-10.41-1.74-15.63,2.12-5.36,7.58-10.76,13.02-10.76.31,0,.62.02.93.05,3.45.4,5.9,2.01,7.51,4.93,2.44,4.44,2.38,11.21-.15,16.47Z"/>
    </g>
    <g>
      <path class="cls-1" d="M69.89,86.12c0,8.09,5.92,14.77,13.66,16l4.74-32.07c-.71-.1-1.43-.16-2.17-.16-8.96,0-16.23,7.26-16.23,16.23Z"/>
      <path class="cls-1" d="M86.12,0C38.63,0,0,38.63,0,86.12c0,43.14,31.89,78.97,73.33,85.17l7.31-49.5c-17.33-2.64-30.6-17.6-30.6-35.66,0-19.92,16.15-36.08,36.08-36.08,1.72,0,3.42.13,5.08.36L98.51.9c-4.05-.59-8.18-.9-12.39-.9ZM37.31,138.99c-11.17-10.33-18.92-24.22-21.83-39.12l3.4-.66c2.77,14.18,10.15,27.41,20.78,37.24l-2.35,2.54ZM43.79,132.04c-9.66-8.93-16.39-20.94-18.96-33.82l3.4-.67c2.42,12.16,8.78,23.51,17.91,31.95l-2.35,2.54ZM50.27,125.11c-8.17-7.53-13.89-17.67-16.09-28.53l3.39-.69c2.06,10.16,7.4,19.63,15.04,26.67l-2.35,2.55ZM58.04,116.65l-2.35,2.55c-6.93-6.39-11.78-14.99-13.65-24.21l3.39-.69c1.72,8.51,6.2,16.45,12.6,22.35ZM86.86,44.63c-3.04-.07-6.11.23-9.11.85l-.71-3.39c3.25-.68,6.57-.98,9.88-.92l-.07,3.46ZM87,36.6c-3.63-.08-7.29.27-10.88,1.02l-.71-3.39c3.84-.8,7.75-1.16,11.65-1.09l-.07,3.46ZM87.3,27.12c-4.32-.09-8.67.3-12.92,1.18l-.69-3.39c4.5-.92,9.1-1.33,13.69-1.25l-.07,3.46ZM87.59,17.64c-5-.11-10.03.33-14.96,1.32l-.68-3.4c5.17-1.04,10.46-1.51,15.72-1.38l-.08,3.46Z"/>
    </g>
  </g>
</svg>